# xmcd CD database file
#
# Track frame offsets:
#	187
#	7802
#	28947
#	42870
#	61460
#	82335
#	101195
#	117582
#	138777
#	156662
#	177917
#
# Disc length: 2707 seconds
#
# Revision: 0
# Processed by: cddbd v1.5PL3 Copyright (c) Steve Scherf et al.
# Submitted via: CDex 1.50
#
DISCID=990a910b
DTITLE=おおたか静流 - おおたか静流 - Performance
DYEAR=1900
DGENRE=JPop
TTITLE0=マンジュシャゲ
TTITLE1=ブンガワン・ソロ
TTITLE2=林檎の木の下で
TTITLE3=アカシアの雨がやむとき
TTITLE4=夜来香
TTITLE5=悲しくてやりきれない
TTITLE6=じんじろげ
TTITLE7=ゴンドラの唄
TTITLE8=ウスクダラ
TTITLE9=花
TTITLE10=流れのままに
EXTD=
EXTT0=
EXTT1=
EXTT2=
EXTT3=
EXTT4=
EXTT5=
EXTT6=
EXTT7=
EXTT8=
EXTT9=
EXTT10=
PLAYORDER=
